<svg xmlns="http://www.w3.org/2000/svg" height="1024" width="1024"><path d="M512 0C229.252 0 0 229.3 0 512c0 226.3 146.7 418.1 350.2 485.8 25.6 4.7 34.937-11.125 34.937-24.626 0-12.188-0.469-52.562-0.718-95.314-128.708 23.46-161.707-31.541-172.469-60.373-5.525-14.809-30.407-60.249-52.398-72.263-17.988-9.828-43.26-33.237-0.917-33.735 40.434-0.476 69.3 37.3 78.5 52.8 45.9 77.7 119.9 55.6 149 42.5 4.654-32.999 17.902-55.627 32.501-68.373-113.657-12.939-233.22-56.875-233.22-253.063 0-55.94 19.968-101.561 52.658-137.404-5.22-12.999-22.844-65.095 5.063-135.563 0 0 42.937-13.749 140.8 52.5 40.811-11.406 84.594-17.031 128.124-17.22 43.5 0.2 87.3 5.9 128.2 17.3 97.689-66.311 140.686-52.501 140.686-52.501 28 70.5 10.4 122.6 5.1 135.5 32.8 35.8 52.6 81.5 52.6 137.4 0 196.686-119.751 240-233.813 252.7 18.4 15.9 34.7 47 34.7 94.7 0 68.437-0.686 123.627-0.686 140.5 0 13.6 9.3 29.6 35.2 24.562C877.436 930 1024 738.1 1024 512 1024 229.3 794.7 0 512 0z"/></svg>