<svg xmlns:dc="http://purl.org/dc/elements/1.1/" xmlns:cc="http://creativecommons.org/ns#" xmlns:rdf="http://www.w3.org/1999/02/22-rdf-syntax-ns#" xmlns:svg="http://www.w3.org/2000/svg" xmlns="http://www.w3.org/2000/svg" viewBox="0 0 15.293333 26.613333" height="26.6" width="15.3" xml:space="preserve" version="1.1"><style>.style0{clip-path:	url(#clipPath20);}.style1{fill:	#32405a;fill-rule:	nonzero;}</style><metadata><rdf:RDF><cc:Work rdf:about=""><dc:format>image/svg+xml</dc:format><dc:type rdf:resource="http://purl.org/dc/dcmitype/StillImage"/></cc:Work></rdf:RDF></metadata><defs><clipPath clipPathUnits="userSpaceOnUse"><path d="M 0 199.6 V 0 h 114.7 v 199.6 z"/></clipPath></defs><g transform="matrix(1.3333333,0,0,-1.3333333,0,26.613333)"><g transform="scale(0.1)"><g><g class="style0"><path d="M 105.1 40.2 C 101.4 38.4 94.3 36.9 89 36.7 73 36.3 69.9 47.9 69.8 56.4 v 62.1 h 40.1 v 30.2 H 69.9 v 50.8 c 0 0 -28.8 0 -29.2 0 -0.5 0 -1.3 -0.4 -1.4 -1.5 C 37.6 182.5 30.3 155.2 0 144.3 V 118.5 H 20.2 V 53.3 C 20.2 31 36.7 -0.7 80.1 0 94.8 0.3 111.1 6.4 114.7 11.7 l -9.6 28.5" class="style1"/></g></g></g></g></svg>