<svg xmlns:dc="http://purl.org/dc/elements/1.1/" xmlns:cc="http://creativecommons.org/ns#" xmlns:rdf="http://www.w3.org/1999/02/22-rdf-syntax-ns#" xmlns:svg="http://www.w3.org/2000/svg" xmlns="http://www.w3.org/2000/svg" viewBox="0 0 364.51999 296.23999" height="296.2" width="364.5" xml:space="preserve" version="1.1"><style>.style0{clip-path:	url(#clipPath20);}.style1{fill:	#6aa9e0;fill-rule:	nonzero;}</style><metadata><rdf:RDF><cc:Work rdf:about=""><dc:format>image/svg+xml</dc:format><dc:type rdf:resource="http://purl.org/dc/dcmitype/StillImage"/></cc:Work></rdf:RDF></metadata><defs><clipPath clipPathUnits="userSpaceOnUse"><path d="M 0 2221.8 V 0 h 2733.9 v 2221.8 z"/></clipPath></defs><g transform="matrix(1.3333333,0,0,-1.3333333,0,296.24)"><g transform="scale(0.1)"><g><g class="style0"><path d="m 2733.9 1958.8 c -100.6 -44.6 -208.7 -74.8 -322.1 -88.3 115.8 69.4 204.7 179.3 246.6 310.3 -108.4 -64.3 -228.4 -111 -356.2 -136.1 -102.3 109 -248.1 177.1 -409.4 177.1 -309.8 0 -560.9 -251.1 -560.9 -560.9 0 -44 5 -86.8 14.5 -127.8 -466.2 23.4 -879.4 246.7 -1156.1 586 -48.3 -82.8 -75.9 -179.2 -75.9 -282 0 -194.6 99 -366.3 249.5 -466.9 -91.9 2.9 -178.4 28.1 -254.1 70.2 -0 -2.3 -0.1 -4.7 -0.1 -7 0 -271.8 193.3 -498.5 449.9 -550 -47.1 -12.8 -96.6 -19.7 -147.8 -19.7 -36.1 0 -71.3 3.5 -105.5 10.1 71.4 -222.8 278.5 -385 524 -389.5 C 638.4 333.8 396.6 244.2 133.8 244.2 88.5 244.2 43.9 246.8 0 252 248.2 92.9 543 0 859.8 0 1891.5 0 2455.6 854.7 2455.6 1595.9 c 0 24.3 -0.5 48.5 -1.6 72.6 109.6 79.1 204.7 177.9 279.9 290.4" class="style1"/></g></g></g></g></svg>